<?xml version="1.0" standalone="no"?> <!DOCTYPE svg PUBLIC "-//W3C//DTD SVG 1.0//EN" "http://www.w3.org/TR/2001/REC-SVG-20010904/DTD/svg10.dtd" > <svg xmlns="http://www.w3.org/2000/svg" width="100%" height="100%">
<defs >
<font id="clearsans-italic" horiz-adv-x="1099" ><font-face
    font-family="Clear Sans"
    units-per-em="2048"
    panose-1="2 11 5 3 3 2 2 9 3 4"
    ascent="2206"
    descent="-563"
    alphabetic="0" />
<missing-glyph horiz-adv-x="2048" />
<glyph unicode=" " glyph-name="space" horiz-adv-x="543" />
<glyph unicode="!" glyph-name="exclam" horiz-adv-x="545" d="M319 399H176L356 1384H551L319 399ZM305 137Q305 112 298 87T283 47Q264 13 233 0T156 -14Q100 -14 78 4T55 57Q55 77 60 97T74 139Q89 177 119 194T203 211Q257 211 281 193T305 137Z" />
<glyph unicode="&quot;" glyph-name="quotedbl" horiz-adv-x="905" d="M758 834H633L711 1384H915L758 834ZM399 834H274L350 1384H555L399 834Z" />
<glyph unicode="#" glyph-name="numbersign" horiz-adv-x="1346" d="M1020 868L934 516H1192L1163 393H901L803 0H684L778 393H492L395 0H274L371 393H119L150 516H401L492 868H227L258 993H522L618 1384H739L641 993H930L1028 1384H1149L1051 993H1303L1272 868H1020ZM612
868L522 516H811L901 868H612Z" />
<glyph unicode="$" glyph-name="dollar" horiz-adv-x="1239" d="M842 1300Q954 1283 1034 1222T1149 1073L1008 987Q977 1055 927 1098T811 1153L727 774Q803 747 859 716T951 645T1006 559T1024 455Q1024 291 910 192T580 76L539 -131H414L459 78Q390 84 336
103T242 153T175 222T131 309L281 393Q288 365 303 338T344 289T404 250T487 227L578 649Q500 676 446 707T359 776T310 857T295 952Q295 1016 316 1077T386 1187T517 1267T717 1305L737 1411H864L842 1300ZM854 430Q854 463 847 489T821 538T771 578T694 612L612
225Q677 230 723 246T798 288T840 349T854 430ZM465 975Q465 944 470 921T491 879T536 844T612 809L686 1157Q623 1152 581 1136T513 1095T476 1039T465 975Z" />
<glyph unicode="%" glyph-name="percent" horiz-adv-x="2048" d="M426 -55L1505 1434H1667L588 -55H426ZM475 520Q397 520 341 541T248 598T195 686T178 797Q178 833 182 874T195 960T217 1049T248 1137Q302 1267 396 1335T637 1403Q788 1403 863 1328T938 1120Q938
1073 930 1016T906 901T869 789T821 694Q761 601 675 561T475 520ZM492 653Q570 653 616 690T694 795Q708 826 720 864T743 945T758 1032T764 1120Q764 1155 757 1183T734 1230T690 1260T623 1270Q545 1270 496 1227T414 1102Q400 1068 389 1030T369 951T357 872T352
799Q352 728 383 691T492 653ZM1462 -31Q1384 -31 1328 -10T1235 47T1182 135T1165 246Q1165 282 1169 323T1182 409T1204 498T1235 586Q1289 716 1383 784T1624 852Q1775 852 1850 778T1925 569Q1925 522 1917 465T1893 350T1856 238T1808 143Q1748 50 1662 10T1462
-31ZM1479 102Q1557 102 1603 139T1681 244Q1695 275 1707 313T1730 394T1745 481T1751 569Q1751 640 1720 679T1610 719Q1532 719 1483 676T1401 551Q1387 517 1376 479T1356 400T1344 321T1339 248Q1339 177 1370 140T1479 102Z" />
<glyph unicode="&amp;" glyph-name="ampersand" horiz-adv-x="1298" d="M86 303Q86 387 114 453T193 576T316 681T479 782Q453 830 436 867T409 940T395 1010T391 1087Q391 1146 415 1204T485 1308T600 1382T758 1411Q906 1411 985 1349T1065 1155Q1065 1102 1048
1054T988 957T877 854T705 737L907 373Q957 433 999 503T1083 655L1229 588Q1181 485 1121 390T991 221L1118 0H922L860 104Q773 39 675 5T459 -29Q271 -29 179 58T86 303ZM463 129Q641 129 780 244L553 651Q464 597 408 555T319 475T276 400T264 319Q264 233 315
181T463 129ZM559 1083Q559 1008 602 926L631 870Q708 915 759 952T840 1021T882 1083T895 1147Q895 1209 861 1239T748 1270Q700 1270 665 1254T606 1212T571 1152T559 1083Z" />
<glyph unicode="&apos;" glyph-name="quotesingle" horiz-adv-x="547" d="M399 834H274L350 1384H555L399 834Z" />
<glyph unicode="(" glyph-name="parenleft" horiz-adv-x="780" d="M315 -395Q267 -319 231 -243T170 -83T133 92T121 293Q121 458 163 625T284 951T474 1255T721 1520H911Q765 1398 649 1250T452 943T328 618T285 295Q285 93 339 -81T498 -395H315Z" />
<glyph unicode=")" glyph-name="parenright" horiz-adv-x="780" d="M481 1520Q529 1444 565 1367T626 1207T663 1032T676 831Q676 666 633 499T512 173T323 -130T76 -395H-115Q31 -273 147 -126T344 181T468 506T512 829Q512 1032 457 1206T299 1520H481Z" />
<glyph unicode="*" glyph-name="asterisk" horiz-adv-x="930" d="M854 905L623 1063L567 795H457L518 1069L248 913L199 1018L494 1163L252 1317L326 1409L555 1251L610 1520H721L659 1251L926 1395L979 1296L678 1151L926 995L854 905Z" />
<glyph unicode="+" glyph-name="plus" horiz-adv-x="1427" d="M805 514V37H662V514H184V657H662V1137H805V657H1284V514H805Z" />
<glyph unicode="," glyph-name="comma" horiz-adv-x="545" d="M4 -293Q33 -264 57 -225T99 -146T128 -71T145 -14Q99 -14 78 3T57 57Q57 95 74 135Q89 172 116 191T195 211Q253 211 278 190T303 125Q303 104 297 76T282 18T260 -43T236 -100Q205 -165 171 -215T106
-293H4Z" />
<glyph unicode="-" glyph-name="hyphen" horiz-adv-x="811" d="M82 440L119 612H729L692 440H82Z" />
<glyph unicode="." glyph-name="period" horiz-adv-x="545" d="M305 139Q305 116 300 93T283 47Q264 13 233 0T156 -14Q100 -14 78 4T55 57Q55 77 60 100T76 143Q91 178 121 194T203 211Q257 211 281 194T305 139Z" />
<glyph unicode="/" glyph-name="slash" horiz-adv-x="971" d="M2 -299H-164L913 1520H1083L2 -299Z" />
<glyph unicode="0" glyph-name="zero" horiz-adv-x="1239" d="M1190 975Q1190 910 1180 832T1153 673T1112 513T1059 365Q1013 252 956 176T830 54T678 -11T500 -31Q303 -31 211 80T119 406Q119 465 127 534T150 675T185 820T229 958Q271 1072 324 1156T446 1296T604
1379T807 1407Q898 1407 969 1381T1089 1301T1164 1166T1190 975ZM889 440Q909 488 928 553T962 690T986 834T995 969Q995 1044 982 1097T942 1183T872 1231T770 1247Q705 1247 652 1227T556 1167T477 1065T412 920Q392 867 375 801T343 667T321 531T313 408Q313
261 361 195T508 129Q576 129 631 146T732 201T816 298T889 440Z" />
<glyph unicode="1" glyph-name="one" horiz-adv-x="1239" d="M494 0L702 989H373L401 1118Q500 1124 567 1139T682 1184T765 1263T834 1384H963L670 0H494Z" />
<glyph unicode="2" glyph-name="two" horiz-adv-x="1163" d="M27 0L68 195Q125 237 187 283T313 377T438 474T557 570T663 661T752 745Q791 787 822 825T876 903T911 984T924 1073Q924 1155 877 1202T719 1249Q628 1249 551 1208T401 1079L274 1190Q318 1242 366
1283T472 1353T597 1397T748 1413Q929 1413 1024 1329T1120 1073Q1120 1017 1103 961T1055 849T979 741T881 637Q845 603 810 573T737 512T655 446T556 372T432 281T276 168H971L936 0H27Z" />
<glyph unicode="3" glyph-name="three" horiz-adv-x="1163" d="M463 815H547Q629 815 695 836T809 893T881 977T907 1079Q907 1171 852 1211T702 1251Q603 1251 528 1212T387 1098L256 1196Q291 1241 336 1281T438 1350T564 1396T717 1413Q814 1413 886 1390T1005
1325T1075 1225T1098 1096Q1098 1034 1078 979T1016 878T909 797T754 739Q803 732 847 709T924 648T976 558T995 442Q995 358 960 274T853 122T673 13T420 -29Q270 -29 171 24T27 174L188 272Q200 244 222 219T276 174T348 144T434 133Q536 133 605 162T717 238T778
341T797 451Q797 506 779 545T727 608T644 644T530 655H430L463 815Z" />
<glyph unicode="4" glyph-name="four" horiz-adv-x="1239" d="M891 307L827 0H651L715 307H16L55 485L952 1384H1120L926 467H1112L1077 307H891ZM887 1110L242 467H750L887 1110Z" />
<glyph unicode="5" glyph-name="five" horiz-adv-x="1163" d="M1020 526Q1020 412 976 307T852 121Q775 43 665 7T418 -29Q340 -29 276 -13T164 31T84 95T37 174L190 272Q201 245 224 220T280 175T355 145T446 133Q488 133 528 141T606 163T674 197T729 244Q751
268 769 299T799 365T818 435T825 502Q825 606 772 659T592 713Q507 713 436 694T303 641H215L446 1384H1157L1122 1217H561L434 821Q482 843 545 855T674 868Q748 868 811 851T921 793T994 687T1020 526Z" />
<glyph unicode="6" glyph-name="six" horiz-adv-x="1163" d="M510 -29Q310 -29 217 75T123 389Q123 510 149 634T217 879Q259 1004 315 1103T446 1271T613 1376T821 1413Q890 1413 943 1404T1037 1377T1111 1333T1171 1274L1042 1143Q996 1200 945 1226T817 1253Q731
1253 663 1216T542 1115T449 965T381 780Q455 836 539 861T700 887Q887 887 975 802T1063 553Q1063 488 1050 419T1008 286T936 164T831 64T690 -4T510 -29ZM526 131Q614 131 679 166T787 259T851 388T872 535Q872 584 858 620T817 679T754 713T672 725Q625 725
580 718T493 698T414 669T348 637Q333 563 324 500T315 385Q315 311 328 262T368 184T434 143T526 131Z" />
<glyph unicode="7" glyph-name="seven" horiz-adv-x="1239" d="M475 0H254L1034 1217H285L319 1384H1266L1229 1212L475 0Z" />
<glyph unicode="8" glyph-name="eight" horiz-adv-x="1163" d="M801 733Q858 704 901 672T973 601T1017 518T1032 416Q1032 321 993 240T881 99T706 5T479 -29Q270 -29 166 48T61 291Q61 364 89 431T168 555T292 658T453 739Q352 793 300 858T248 1022Q248 1106
280 1178T377 1302T535 1383T754 1413Q953 1413 1052 1337T1151 1108Q1151 1046 1126 993T1054 892T944 806T801 733ZM645 811Q693 829 749 853T853 911T934 987T967 1087Q967 1183 909 1224T727 1266Q655 1266 600 1248T508 1199T451 1129T432 1047Q432 1012 442
983T476 927T542 871T645 811ZM612 659Q530 629 463 594T347 516T273 419T246 299Q246 217 306 169T498 121Q558 121 620 138T733 191T816 280T848 406Q848 452 829 488T778 554T703 609T612 659Z" />
<glyph unicode="9" glyph-name="nine" horiz-adv-x="1163" d="M733 1413Q932 1413 1026 1310T1120 995Q1120 875 1093 751T1026 506Q984 381 927 282T796 113T629 8T422 -29Q354 -29 301 -20T206 8T132 52T72 111L201 242Q247 185 299 158T426 131Q512 131 580
168T701 269T794 419T862 604Q788 548 704 523T543 498Q355 498 268 583T180 831Q180 897 193 965T235 1098T307 1220T412 1320T553 1388T733 1413ZM717 1253Q629 1253 564 1218T456 1125T392 996T371 850Q371 801 385 765T426 706T490 671T571 659Q618 659 663
667T750 687T829 716T895 748Q910 822 919 885T928 999Q928 1073 915 1122T875 1200T809 1241T717 1253Z" />
<glyph unicode=":" glyph-name="colon" horiz-adv-x="545" d="M305 139Q305 116 300 93T283 47Q264 13 233 0T156 -14Q100 -14 78 4T55 57Q55 77 60 100T76 143Q91 178 121 194T203 211Q257 211 281 194T305 139ZM483 977Q483 954 478 930T461 885Q442 851 411
837T334 823Q278 823 256 842T233 895Q233 915 239 938T254 981Q269 1016 299 1032T381 1049Q435 1049 459 1032T483 977Z" />
<glyph unicode=";" glyph-name="semicolon" horiz-adv-x="545" d="M483 977Q483 954 478 930T461 885Q442 851 411 837T334 823Q278 823 256 842T233 895Q233 915 239 938T254 981Q269 1016 299 1032T381 1049Q435 1049 459 1032T483 977ZM4 -293Q33 -264 57 -225T99
-146T128 -71T145 -14Q99 -14 78 3T57 57Q57 95 74 135Q89 172 116 191T195 211Q253 211 278 190T303 125Q303 104 297 76T282 18T260 -43T236 -100Q205 -165 171 -215T106 -293H4Z" />
<glyph unicode="&lt;" glyph-name="less" horiz-adv-x="1427" d="M184 524V649L1284 1112V956L383 586L1284 217V61L184 524Z" />
<glyph unicode="=" glyph-name="equal" horiz-adv-x="1427" d="M193 745V889H1292V745H193ZM193 283V426H1292V283H193Z" />
<glyph unicode="&gt;" glyph-name="greater" horiz-adv-x="1427" d="M195 61V217L1094 586L195 956V1112L1294 649V524L195 61Z" />
<glyph unicode="?" glyph-name="question" horiz-adv-x="1028" d="M317 369L379 653Q490 708 577 755T724 853T815 962T846 1096Q846 1171 792 1210T633 1249Q581 1249 538 1238T458 1209T394 1164T342 1108L211 1212Q244 1257 287 1294T383 1357T501 1398T643
1413Q736 1413 810 1394T935 1337T1014 1241T1042 1108Q1042 1019 1008 946T907 808T746 684T530 567L487 369H317ZM471 137Q471 112 464 87T449 47Q430 13 399 0T322 -14Q266 -14 244 4T221 57Q221 77 226 97T240 139Q255 177 285 194T369 211Q423 211 447 193T471
137Z" />
<glyph unicode="@" glyph-name="at" horiz-adv-x="1896" d="M1808 745Q1808 651 1791 561T1742 389T1664 240T1561 122T1435 44T1290 16Q1185 16 1136 61T1083 186Q1042 154 1004 128T927 82T848 53T766 43Q688 43 635 68T548 138T500 247T485 387Q485 414 490
454T507 542T535 640T575 735Q610 802 652 855T747 945T868 1002T1022 1022Q1058 1022 1090 1015T1149 995T1199 969T1239 940L1249 993H1417L1264 270Q1261 255 1259 243T1257 219Q1257 185 1275 172T1333 158Q1372 158 1411 179T1486 239T1553 332T1608 452T1644
593T1657 750Q1657 876 1624 973T1521 1136T1340 1237T1075 1272Q944 1272 832 1237T627 1138T464 989T345 800T271 585T246 356Q246 233 284 136T395 -29T572 -132T807 -168Q928 -168 1032 -158T1237 -123V-266Q1135 -289 1015 -299T774 -309Q618 -309 492 -267T278
-140T142 69T94 358Q94 485 123 612T209 857T351 1076T545 1252T791 1370T1085 1413Q1256 1413 1390 1372T1617 1248T1759 1040T1808 745ZM1204 791Q1155 833 1106 851T1001 870Q912 870 847 826T731 676Q713 639 700 600T677 524T664 454T659 395Q659 349 665
313T687 253T727 216T791 203Q839 203 881 213T962 242T1036 284T1106 338L1204 791Z" />
<glyph unicode="A" glyph-name="A" horiz-adv-x="1262" d="M-47 0L700 1384H936L1112 0H924L881 360H342L145 0H-47ZM426 528H860L782 1202L426 528Z" />
<glyph unicode="B" glyph-name="B" horiz-adv-x="1247" d="M889 756Q940 747 984 725T1062 667T1114 581T1133 465Q1133 373 1102 289T1001 140T822 38T555 0H68L360 1384H756Q880 1384 961 1365T1091 1309T1158 1222T1178 1106Q1178 979 1105 890T889 756ZM621
809Q794 809 885 874T977 1071Q977 1117 961 1146T914 1192T841 1215T743 1221H506L420 809H621ZM539 168Q634 168 707 184T831 236T906 328T932 465Q932 522 911 557T850 612T750 638T616 645H385L283 168H539Z" />
<glyph unicode="C" glyph-name="C" horiz-adv-x="1280" d="M1141 236Q1096 180 1044 132T927 48T779 -8T590 -29Q469 -29 380 4T233 100T146 254T117 463Q117 526 125 595T149 736T188 879T244 1018Q283 1101 340 1173T472 1298T641 1382T848 1413Q944 1413 1018
1395T1148 1343T1243 1259T1311 1147L1149 1053Q1128 1102 1099 1139T1031 1200T940 1237T823 1249Q752 1249 691 1227T579 1164T488 1070T418 952Q392 897 372 836T338 712T317 586T309 461Q309 305 382 220T588 135Q662 135 723 150T835 193T930 261T1014 350L1141
236Z" />
<glyph unicode="D" glyph-name="D" horiz-adv-x="1266" d="M1219 926Q1219 877 1213 815T1194 685T1161 546T1113 408T1046 280T961 174Q911 126 850 93T720 39T576 9T420 0H55L348 1384H690Q821 1384 920 1362T1085 1286T1185 1144T1219 926ZM422 168Q558 168
656 197T823 295Q868 340 905 414T969 576T1009 754T1024 924Q1024 1006 1007 1062T946 1152T829 1202T645 1217H496L272 168H422Z" />
<glyph unicode="E" glyph-name="E" horiz-adv-x="1130" d="M68 0L360 1384H1190L1155 1217H506L420 813H975L940 645H385L283 168H932L897 0H68Z" />
<glyph unicode="F" glyph-name="F" horiz-adv-x="1085" d="M506 1217L420 813H965L930 645H385L248 0H68L360 1384H1182L1147 1217H506Z" />
<glyph unicode="G" glyph-name="G" horiz-adv-x="1362" d="M1153 1051Q1132 1105 1103 1143T1037 1204T953 1238T850 1249Q764 1249 695 1218T572 1136T477 1017T408 877Q385 818 369 759T343 645T329 542T324 459Q324 378 341 317T397 216T496 155T645 135Q684
135 721 141T795 157T870 182T952 215L1020 535H690L725 702H1235L1110 106Q1048 75 990 50T872 8T753 -19T627 -29Q503 -29 410 -1T255 88T161 241T129 465Q129 570 152 691T225 932Q265 1028 323 1115T460 1268T638 1374T860 1413Q1038 1413 1151 1347T1325 1137L1153
1051Z" />
<glyph unicode="H" glyph-name="H" horiz-adv-x="1337" d="M866 0L999 633H381L248 0H68L360 1384H541L418 801H1036L1159 1384H1339L1047 0H866Z" />
<glyph unicode="I" glyph-name="I" horiz-adv-x="754" d="M543 0H-10L23 160H209L436 1227H250L283 1384H836L803 1227H616L389 160H575L543 0Z" />
<glyph unicode="J" glyph-name="J" horiz-adv-x="866" d="M655 377Q631 265 595 187T506 61T379 -9T207 -31Q135 -31 74 -16T-33 20L39 176Q73 156 121 145T219 133Q282 133 325 150T399 206T451 306T492 453L688 1384H868L655 377Z" />
<glyph unicode="K" glyph-name="K" horiz-adv-x="1239" d="M856 0L518 625L346 467L248 0H68L360 1384H541L403 731L1098 1384H1333L653 743L1075 0H856Z" />
<glyph unicode="L" glyph-name="L" horiz-adv-x="1018" d="M68 0L360 1384H541L283 168H897L862 0H68Z" />
<glyph unicode="M" glyph-name="M" horiz-adv-x="1561" d="M1100 0L1343 1147L805 377H692L485 1147L242 0H68L360 1384H598L797 631L1321 1384H1565L1272 0H1100Z" />
<glyph unicode="N" glyph-name="N" horiz-adv-x="1358" d="M870 0L494 1188L242 0H68L360 1384H610L956 297L1188 1384H1362L1069 0H870Z" />
<glyph unicode="O" glyph-name="O" horiz-adv-x="1337" d="M582 -29Q450 -29 361 6T218 107T141 264T117 469Q117 522 123 581T141 704T172 831T217 958Q257 1052 310 1135T437 1280T609 1377T836 1413Q1058 1413 1174 1289T1290 924Q1290 845 1276 739T1227 520Q1191
404 1137 304T1006 130T824 14T582 -29ZM311 465Q311 373 326 310T376 208T463 152T592 135Q755 135 862 240T1038 563Q1053 612 1064 662T1082 761T1092 852T1096 930Q1096 1091 1031 1170T817 1249Q736 1249 673 1225T560 1157T471 1048T399 903Q376 846 360
786T332 669T316 560T311 465Z" />
<glyph unicode="P" glyph-name="P" horiz-adv-x="1157" d="M1167 1069Q1167 946 1137 837T1040 646T864 517T600 469H346L248 0H68L360 1384H768Q862 1384 936 1368T1062 1316T1140 1219T1167 1069ZM618 637Q687 637 740 654T832 700T898 768T941 854T964 949T971
1047Q971 1090 961 1122T924 1175T853 1206T743 1217H506L383 637H618Z" />
<glyph unicode="Q" glyph-name="Q" horiz-adv-x="1337" d="M823 -328Q732 -328 667 -310T558 -253T492 -156T463 -20Q366 -6 300 35T194 139T135 286T117 469Q117 522 123 581T141 704T172 831T217 958Q257 1052 310 1135T437 1280T609 1377T836 1413Q1058 1413
1174 1289T1290 924Q1290 845 1276 739T1227 520Q1194 413 1146 320T1031 156T874 38T668 -20Q672 -59 683 -86T717 -131T775 -157T864 -166Q879 -166 899 -164T942 -159T986 -152T1026 -141L1051 -293Q1023 -302 993 -308T933 -319T875 -326T823 -328ZM311 465Q311
373 326 310T376 208T463 152T592 135Q755 135 862 246T1038 573Q1069 672 1082 766T1096 930Q1096 1091 1031 1170T817 1249Q736 1249 673 1225T560 1157T470 1048T397 903Q374 846 358 786T332 669T316 560T311 465Z" />
<glyph unicode="R" glyph-name="R" horiz-adv-x="1212" d="M838 0L610 565H367L248 0H68L360 1384H770Q870 1384 948 1370T1078 1319T1158 1221T1186 1067Q1186 1032 1178 985T1151 887T1105 787T1038 698Q1014 675 986 657T926 626T861 603T795 586L1042 0H838ZM629
729Q726 729 791 746T899 805Q923 828 940 859T969 924T985 995T991 1067Q991 1111 976 1140T931 1188T854 1213T745 1221H506L401 729H629Z" />
<glyph unicode="S" glyph-name="S" horiz-adv-x="1202" d="M203 334Q216 295 239 259T300 196T394 152T532 135Q603 135 665 152T775 201T849 278T877 379Q877 422 868 456T832 519T756 573T625 623Q503 660 424 695T299 773T235 866T217 987Q217 1064 247 1140T342
1277T506 1375T745 1413Q834 1413 904 1397T1028 1348T1123 1267T1192 1155L1032 1065Q1000 1150 923 1199T725 1249Q641 1249 582 1228T485 1174T430 1097T412 1008Q412 973 419 947T455 897T537 850T684 797Q797 761 871 724T990 641T1053 538T1071 408Q1071
294 1025 212T901 76T725 -3T520 -29Q400 -29 316 -6T175 55T85 145T31 254L203 334Z" />
<glyph unicode="T" glyph-name="T" horiz-adv-x="1159" d="M817 1217L559 0H379L637 1217H188L223 1384H1303L1268 1217H817Z" />
<glyph unicode="U" glyph-name="U" horiz-adv-x="1376" d="M1210 578Q1172 396 1120 279T993 92T819 -4T586 -31Q471 -31 390 -7T258 63T184 177T160 334Q160 445 195 600L360 1384H541L375 598Q367 563 361 532T351 469T344 404T342 334Q342 235 402 184T592
133Q690 133 760 155T881 232T968 378T1034 610L1200 1384H1380L1210 578Z" />
<glyph unicode="V" glyph-name="V" horiz-adv-x="1200" d="M608 0H365L233 1384H414L520 178L1139 1384H1333L608 0Z" />
<glyph unicode="W" glyph-name="W" horiz-adv-x="1722" d="M1219 0H1001L979 1108L487 0H276L248 1384H424L438 262L932 1384H1137L1159 262L1655 1384H1839L1219 0Z" />
<glyph unicode="X" glyph-name="X" horiz-adv-x="1184" d="M-57 0L535 715L246 1384H446L664 850L1100 1384H1315L729 694L1022 0H821L598 559L156 0H-57Z" />
<glyph unicode="Y" glyph-name="Y" horiz-adv-x="1124" d="M655 535L543 0H358L469 526L223 1384H412L592 711L1055 1384H1266L655 535Z" />
<glyph unicode="Z" glyph-name="Z" horiz-adv-x="1141" d="M-20 0L16 176L942 1217H268L303 1384H1202L1167 1219L231 168H961L926 0H-20Z" />
<glyph unicode="[" glyph-name="bracketleft" horiz-adv-x="788" d="M-4 -395L395 1489H872L844 1356H522L178 -262H500L473 -395H-4Z" />
<glyph unicode="\" glyph-name="backslash" horiz-adv-x="971" d="M633 -299L309 1520H467L788 -299H633Z" />
<glyph unicode="]" glyph-name="bracketright" horiz-adv-x="788" d="M-72 -395L-45 -262H276L621 1356H297L326 1489H803L403 -395H-72Z" />
<glyph unicode="^" glyph-name="asciicircum" horiz-adv-x="1133" d="M907 649L733 1241L311 649H166L690 1384H825L1036 649H907Z" />
<glyph unicode="_" glyph-name="underscore" horiz-adv-x="1024" d="M-195 -256L-172 -154H891L868 -256H-195Z" />
<glyph unicode="`" glyph-name="grave" horiz-adv-x="1063" d="M692 1208L483 1569H700L813 1208H692Z" />
<glyph unicode="a" glyph-name="a" horiz-adv-x="1151" d="M92 342Q92 412 105 493T146 657T217 815T320 950T457 1044T629 1079Q725 1079 791 1049T907 963L926 1049H1096L874 0H705L731 125Q694 93 656 65T578 16T493 -18T399 -31Q316 -31 258 -7T163 65T109
182T92 342ZM877 813Q827 867 769 896T625 926Q563 926 513 899T422 826T353 720T304 595T276 464T266 338Q266 222 306 173T434 123Q479 123 523 135T609 169T690 219T764 279L877 813Z" />
<glyph unicode="b" glyph-name="b" horiz-adv-x="1151" d="M225 0H55L371 1489H541L426 944Q460 972 497 997T574 1040T659 1068T752 1079Q835 1079 894 1055T990 983T1045 866T1063 707Q1063 648 1052 578T1019 434T964 290T885 158Q816 67 721 18T504 -31Q422
-31 358 -1T244 86L225 0ZM274 236Q324 182 380 153T514 123Q583 123 644 158T756 268Q787 313 810 366T850 477T874 593T883 711Q883 826 843 876T717 926Q672 926 628 915T542 885T463 842T393 791L274 236Z" />
<glyph unicode="c" glyph-name="c" horiz-adv-x="1010" d="M862 162Q829 120 789 85T700 24T593 -16T465 -31Q365 -31 294 -4T178 73T111 195T90 356Q90 424 103 504T146 664T220 819T330 952T477 1044T666 1079Q791 1079 878 1032T1004 887L852 805Q827 867 779
898T649 930Q584 930 530 904T434 833T360 730T307 607T276 475T266 348Q266 297 277 255T313 182T380 136T481 119Q522 119 557 128T624 155T685 199T745 258L862 162Z" />
<glyph unicode="d" glyph-name="d" horiz-adv-x="1151" d="M88 342Q88 401 99 471T132 615T187 759T266 891Q335 982 430 1030T647 1079Q729 1079 793 1049T907 963L1018 1489H1188L874 0H705L725 104Q690 76 654 52T577 9T492 -20T399 -31Q316 -31 257 -7T161
65T106 182T88 342ZM395 780Q364 735 341 682T301 571T277 455T268 338Q268 222 307 173T434 123Q479 123 523 134T609 164T688 207T758 258L877 813Q827 867 771 896T637 926Q568 926 507 891T395 780Z" />
<glyph unicode="e" glyph-name="e" horiz-adv-x="1059" d="M285 504Q275 457 270 416T264 338Q264 275 277 233T319 166T391 130T496 119Q564 119 630 154T758 254L864 156Q786 67 693 18T475 -31Q286 -31 187 60T88 340Q88 401 98 469T128 605T177 739T244 860Q311
961 412 1020T662 1079Q744 1079 806 1056T909 990T972 887T993 752Q993 742 992 723T988 682T983 638T977 600L956 504H285ZM817 639Q829 697 829 748Q829 839 784 887T639 936Q568 936 514 912T416 836Q359 765 315 639H817Z" />
<glyph unicode="f" glyph-name="f" horiz-adv-x="621" d="M844 1329Q818 1346 783 1358T705 1370Q663 1370 630 1360T571 1326T528 1265T498 1171L471 1049H700L672 905H442L250 0H82L274 905H125L154 1049H303L326 1151Q347 1248 376 1317T451 1432T560 1498T717
1520Q769 1520 817 1507T905 1473L844 1329Z" />
<glyph unicode="g" glyph-name="g" horiz-adv-x="1151" d="M870 -8Q847 -116 807 -189T706 -309T558 -375T356 -395Q228 -395 139 -368T-6 -297L80 -166Q136 -206 203 -229T362 -252Q441 -252 498 -240T597 -195T665 -109T711 31L733 135Q698 106 658 82T576 39T490
11T406 0Q319 0 259 27T161 104T107 222T90 373Q90 450 106 532T154 692T233 841T342 964T480 1048T647 1079Q678 1079 713 1071T782 1048T849 1012T907 963L926 1049H1094L870 -8ZM877 813Q827 867 768 896T637 926Q575 926 524 900T432 829T361 728T310 608T280
484T270 369Q270 256 309 205T440 154Q486 154 529 164T614 193T693 236T766 289L877 813Z" />
<glyph unicode="h" glyph-name="h" horiz-adv-x="1141" d="M702 0L834 618Q846 675 853 723T860 817Q860 865 838 893T754 922Q718 922 674 910T582 874T484 817T383 741L225 0H55L371 1489H541L414 893Q458 933 504 967T598 1026T695 1065T793 1079Q860 1079
905 1061T979 1011T1019 935T1032 840Q1032 803 1024 747T999 618L870 0H702Z" />
<glyph unicode="i" glyph-name="i" horiz-adv-x="502" d="M55 0L276 1049H446L225 0H55ZM297 1278Q297 1349 329 1383T430 1417Q480 1417 501 1398T522 1350Q522 1288 493 1250T393 1212Q364 1212 345 1217T316 1230T301 1251T297 1278Z" />
<glyph unicode="j" glyph-name="j" horiz-adv-x="526" d="M231 -45Q213 -132 184 -197T111 -307T4 -373T-147 -395Q-183 -395 -233 -388T-328 -365L-256 -223Q-224 -237 -190 -244T-113 -252Q-74 -252 -46 -237T4 -194T39 -123T66 -25L293 1049H463L231 -45ZM324
1282Q324 1350 358 1383T457 1417Q506 1417 527 1398T549 1346Q549 1281 516 1247T420 1212Q391 1212 372 1217T343 1231T328 1253T324 1282Z" />
<glyph unicode="k" glyph-name="k" horiz-adv-x="1028" d="M678 0L440 477L299 346L225 0H55L371 1489H541L346 575L850 1049H1069L567 586L870 0H678Z" />
<glyph unicode="l" glyph-name="l" horiz-adv-x="518" d="M63 0L379 1489H549L233 0H63Z" />
<glyph unicode="m" glyph-name="m" horiz-adv-x="1677" d="M1241 0L1372 618Q1386 684 1394 732T1403 815Q1403 868 1381 895T1309 922Q1268 922 1225 906T1139 863T1054 805T975 741L817 0H647L778 618Q792 685 800 734T809 817Q809 871 785 896T709 922Q671
922 629 905T543 861T459 802T383 741L225 0H55L276 1049H446L414 893Q454 933 498 967T587 1026T673 1065T752 1079Q816 1079 860 1064T932 1022T971 957T983 874Q1082 970 1174 1024T1348 1079Q1415 1079 1459 1062T1529 1014T1565 942T1575 854Q1575 778 1552
678L1409 0H1241Z" />
<glyph unicode="n" glyph-name="n" horiz-adv-x="1141" d="M702 0L834 618Q846 675 853 723T860 819Q860 866 835 894T754 922Q675 922 579 874T383 741L225 0H55L276 1049H446L414 893Q458 933 504 967T598 1026T695 1065T793 1079Q860 1079 905 1061T979 1011T1019
935T1032 840Q1032 803 1024 747T999 618L870 0H702Z" />
<glyph unicode="o" glyph-name="o" horiz-adv-x="1135" d="M92 379Q92 433 102 500T136 638T195 780T285 909Q318 947 357 978T444 1031T547 1066T666 1079Q845 1079 943 978T1042 672Q1042 610 1031 537T994 388T928 242T829 113Q764 48 678 9T477 -31Q372 -31
299 -5T180 73T113 201T92 379ZM266 369Q266 304 278 257T316 179T385 134T487 119Q559 119 616 148T719 229Q754 269 782 322T829 434T858 554T868 672Q868 805 815 867T649 930Q568 930 505 893T397 795Q366 754 342 702T301 594T275 480T266 369Z" />
<glyph unicode="p" glyph-name="p" horiz-adv-x="1151" d="M141 -395H-29L276 1049H446L426 944Q460 972 497 997T574 1040T659 1068T752 1079Q835 1079 894 1055T990 983T1045 866T1063 707Q1063 639 1050 558T1009 394T938 236T834 100T695 5T518 -31Q425 -31
359 -1T244 86L141 -395ZM274 236Q324 182 380 153T514 123Q575 123 626 150T719 224T790 330T842 455T873 587T883 711Q883 826 843 876T717 926Q672 926 628 915T542 885T463 842T393 791L274 236Z" />
<glyph unicode="q" glyph-name="q" horiz-adv-x="1151" d="M725 104Q690 76 654 52T577 9T492 -20T399 -31Q316 -31 257 -7T161 65T106 182T88 342Q88 408 101 488T141 650T212 809T315 946T452 1042T627 1079Q724 1079 791 1049T907 963L926 1049H1096L791 -395H621L725
104ZM877 813Q827 867 770 896T629 926Q564 926 512 897T420 821T351 712T304 585T277 456T268 338Q268 222 307 173T434 123Q479 123 523 134T609 164T688 207T758 258L877 813Z" />
<glyph unicode="r" glyph-name="r" horiz-adv-x="795" d="M799 877Q786 883 765 887T723 891Q671 891 625 877T536 839T455 786T379 725L225 0H55L276 1049H446L412 879Q463 927 507 962T592 1020T671 1054T748 1065Q825 1065 868 1042L799 877Z" />
<glyph unicode="s" glyph-name="s" horiz-adv-x="971" d="M168 238Q194 181 246 148T393 115Q437 115 483 123T568 152T630 204T655 285Q655 309 649 330T622 371T560 412T449 457Q366 484 312 512T226 574T181 646T168 737Q168 808 195 870T275 978T404 1052T578
1079Q653 1079 709 1065T807 1027T877 969T926 895L782 811Q774 829 760 850T719 890T655 921T561 934Q510 934 469 921T398 886T352 832T336 766Q336 743 343 721T369 679T421 640T506 606Q598 578 660 550T759 486T811 407T827 303Q827 234 798 173T713 67T574
-4T381 -31Q294 -31 231 -15T125 27T56 88T20 158L168 238Z" />
<glyph unicode="t" glyph-name="t" horiz-adv-x="715" d="M563 0Q517 -14 468 -22T377 -31Q312 -31 267 -15T192 29T149 97T135 184Q135 218 139 259T154 340L274 905H129L158 1049H303L367 1341H535L471 1049H733L705 905H442L324 350Q314 308 309 274T303 213Q303
160 328 137T410 113Q428 113 448 115T488 121T528 130T563 141V0Z" />
<glyph unicode="u" glyph-name="u" horiz-adv-x="1141" d="M436 1049L307 430Q295 373 287 327T279 238Q279 178 304 153T383 127Q463 127 559 174T756 307L913 1049H1083L862 0H692L725 156Q680 115 634 81T540 22T444 -17T346 -31Q279 -31 234 -13T160 37T119
114T106 209Q106 246 115 302T139 430L268 1049H436Z" />
<glyph unicode="v" glyph-name="v" horiz-adv-x="987" d="M465 0H299L162 1049H334L430 225L864 1049H1049L465 0Z" />
<glyph unicode="w" glyph-name="w" horiz-adv-x="1446" d="M1020 0H860L780 803L358 0H207L172 1049H338L344 250L756 1049H897L981 250L1315 1049H1493L1020 0Z" />
<glyph unicode="x" glyph-name="x" horiz-adv-x="991" d="M637 0L471 397L154 0H-55L397 537L168 1049H358L522 664L840 1049H1049L592 522L827 0H637Z" />
<glyph unicode="y" glyph-name="y" horiz-adv-x="1020" d="M-121 -227Q-99 -238 -71 -245T-10 -252Q27 -252 60 -240T126 -201T193 -130T266 -20L322 70L158 1049H330L449 266L897 1049H1083L406 -80Q353 -167 308 -227T214 -324T111 -378T-16 -395Q-39 -395 -62
-393T-108 -386T-149 -377T-184 -365L-121 -227Z" />
<glyph unicode="z" glyph-name="z" horiz-adv-x="915" d="M-31 0L-4 131L688 905H174L203 1049H930L903 924L211 145H756L725 0H-31Z" />
<glyph unicode="{" glyph-name="braceleft" horiz-adv-x="956" d="M594 -395Q519 -395 460 -377T360 -324T298 -238T276 -119Q276 -94 279 -68T289 -14L319 133Q327 168 333 204T340 291Q340 332 327 368T285 431T214 473T111 489H92L125 637H143Q221 637 280
659T382 726T455 837T504 993L535 1139Q573 1324 685 1422T979 1520H1067L1038 1386H969Q856 1386 784 1321T684 1122L647 950Q628 858 600 792T531 679T431 605T291 561Q388 524 442 457T496 281Q496 230 483 174L446 2Q441 -23 437 -48T432 -109Q432 -189 481
-225T639 -262H688L662 -395H594Z" />
<glyph unicode="|" glyph-name="bar" horiz-adv-x="852" d="M381 -395V1520H537V-395H381Z" />
<glyph unicode="}" glyph-name="braceright" horiz-adv-x="956" d="M379 1520Q529 1520 612 1449T696 1243Q696 1194 684 1139L653 991Q645 956 639 920T633 834Q633 792 646 756T687 693T758 651T862 635H881L848 487H829Q751 487 692 465T590 399T518 287T469
131L438 -14Q400 -200 287 -297T-6 -395H-94L-66 -262H4Q117 -262 189 -197T289 2L326 174Q345 266 373 332T442 445T542 519T682 563Q585 600 531 668T477 844Q477 891 489 950L526 1122Q531 1147 536 1172T541 1233Q541 1313 492 1349T334 1386H285L311 1520H379Z"
/>
<glyph unicode="~" glyph-name="asciitilde" horiz-adv-x="1399" d="M213 774Q291 836 367 868T514 901Q583 901 646 877T769 822T885 768T995 743Q1067 743 1149 781T1317 887L1282 727Q1256 706 1223 684T1150 643T1067 612T979 600Q915 600 851 624T725 679T607
733T504 758Q461 758 422 750T344 725T265 680T178 614L213 774Z" />
</font>
</defs>
</svg>
